<?xml version="1.0" encoding="UTF-8" standalone="no"?>
<!DOCTYPE svg PUBLIC "-//W3C//DTD SVG 1.1//EN" "http://www.w3.org/Graphics/SVG/1.1/DTD/svg11.dtd">
<svg width="100%" height="100%" viewBox="300 415 490 240" version="1.1" xmlns="http://www.w3.org/2000/svg" xmlns:xlink="http://www.w3.org/1999/xlink" xml:space="preserve" xmlns:serif="http://www.serif.com/" style="fill-rule:evenodd;clip-rule:evenodd;stroke-linejoin:round;stroke-miterlimit:2;">
    <g id="IMG_8091.PNG" transform="matrix(1.054688,0,0,1.054688,153.595344,14.012703)">
        <path d="M274.126,461.504C273.874,465.549 274.891,475.767 265.081,491.231C243.138,525.815 180.623,521.113 169.558,473.487C158.82,427.266 214.464,386.955 258.083,423.966C272.846,436.493 273.959,458.242 274.126,461.504ZM215.477,494.633C272.203,499.658 262.661,419.225 213.504,429.519C182.52,436.007 174.866,485.17 215.477,494.633Z" style="fill:#f4f4f4;"/>
        <path d="M382.418,419.384C385.565,417.384 405.481,404.729 428.404,411.806C482.123,428.391 475.14,504.259 422.492,513.456C372.055,522.267 333.565,457.731 382.418,419.384ZM419.539,494.719C465.192,483.235 448.302,420.999 405.476,429.389C370.737,436.195 366.68,498.405 419.539,494.719Z" style="fill:#f4f4f4;"/>
        <path d="M511.582,438.579C483.126,471.251 526.312,517.811 561.586,483.588C569.534,475.877 589.276,486.42 568.172,503.108C524.447,537.685 460.884,486.516 490.344,435.41C510.17,401.016 558.901,404.381 575.354,427.6C582.113,437.139 569.931,448.115 560.603,439.386C557.74,436.706 536.06,416.417 511.582,438.579Z" style="fill:#f4f4f4;"/>
        <path d="M236.58,566.79C254.129,560.942 262.338,551.945 268.931,540.756C278.72,524.143 287.621,537.298 288.212,539.585C291.343,551.699 255.77,599.463 202.539,585.359C172.603,577.427 144.124,542.849 159.371,534.287C172.635,526.839 173.246,547.761 190.729,559.159C211.447,572.666 226.986,569.032 236.58,566.79Z" style="fill:#f4f4f4;"/>
        <path d="M311.497,420.496C320.104,414.086 325.814,409.408 346.499,409.606C361.991,409.754 359.05,422.28 356.353,425.371C349.79,432.897 324.359,421.88 315.926,446.647C314.485,450.88 313.414,454.024 314.086,502.5C314.203,510.915 308.501,514.534 303.455,513.991C293.048,512.87 294.617,501.169 294.615,499.5C294.565,456.066 291.997,437.268 311.497,420.496Z" style="fill:#f4f4f4;"/>
    </g>
</svg>
